{
  "accessors": [
    {
      "bufferView": 2,
      "componentType": 5126,
      "count": 1176,
      "max": [
        0.22728300094604492,
        0.10456400364637375,
        0.25874799489974976
      ],
      "min": [
        -0.042406000196933746,
        -0.15826299786567688,
        -0.003145999973639846
      ],
      "type": "VEC3"
    },
    {
      "bufferView": 2,
      "byteOffset": 14112,
      "componentType": 5126,
      "count": 1176,
      "max": [
        0.9981359243392944,
        0.9969094395637512,
        0.9982686042785645
      ],
      "min": [
        -0.9874690771102905,
        -0.9972926378250122,
        -0.9991262555122375
      ],
      "type": "VEC3"
    },
    {
      "bufferView": 1,
      "componentType": 5126,
      "count": 1176,
      "max": [
        0.9911460280418396,
        0.9919310212135315
      ],
      "min": [
        0.008123000152409077,
        0.5995659828186035
      ],
      "type": "VEC2"
    },
    {
      "bufferView": 0,
      "componentType": 5125,
      "count": 5184,
      "type": "SCALAR"
    }
  ],
  "asset": {
    "extras": {
      "author": "patritevi (https://sketchfab.com/patritevi)",
      "license": "CC-BY-4.0 (http://creativecommons.org/licenses/by/4.0/)",
      "source": "https://sketchfab.com/3d-models/white-ball-scan-f5da696851b044b5a19d48fd05c9ee6c",
      "title": "White Ball Scan"
    },
    "generator": "Sketchfab-10.75.0",
    "version": "2.0"
  },
  "bufferViews": [
    {
      "buffer": 0,
      "byteLength": 20736,
      "name": "floatBufferViews",
      "target": 34963
    },
    {
      "buffer": 0,
      "byteLength": 9408,
      "byteOffset": 20736,
      "byteStride": 8,
      "name": "floatBufferViews",
      "target": 34962
    },
    {
      "buffer": 0,
      "byteLength": 28224,
      "byteOffset": 30144,
      "byteStride": 12,
      "name": "floatBufferViews",
      "target": 34962
    }
  ],
  "buffers": [
    {
      "byteLength": 58368,
      "uri": "scene.bin"
    }
  ],
  "extensionsUsed": [
    "KHR_materials_unlit"
  ],
  "images": [
    {
      "uri": "textures/cropped_textured_mesh_0_baseColor.jpeg"
    }
  ],
  "materials": [
    {
      "doubleSided": true,
      "extensions": {
        "KHR_materials_unlit": {}
      },
      "name": "cropped_textured_mesh_0",
      "pbrMetallicRoughness": {
        "baseColorTexture": {
          "index": 0
        },
        "metallicFactor": 0.0
      }
    }
  ],
  "meshes": [
    {
      "name": "Object_0",
      "primitives": [
        {
          "attributes": {
            "NORMAL": 1,
            "POSITION": 0,
            "TEXCOORD_0": 2
          },
          "indices": 3,
          "material": 0,
          "mode": 4
        }
      ]
    }
  ],
  "nodes": [
    {
      "children": [
        1
      ],
      "matrix": [
        1.0,
        0.0,
        0.0,
        0.0,
        0.0,
        0.7404789328575135,
        -0.672079563140869,
        0.0,
        0.0,
        0.672079563140869,
        0.7404789328575135,
        0.0,
        0.0,
        0.06179006397724154,
        -0.08582908660173415,
        1.0
      ],
      "name": "Sketchfab_model"
    },
    {
      "children": [
        2
      ],
      "name": "edit2.obj.cleaner.materialmerger.gles"
    },
    {
      "mesh": 0,
      "name": "Object_2"
    }
  ],
  "samplers": [
    {
      "magFilter": 9729,
      "minFilter": 9987,
      "wrapS": 10497,
      "wrapT": 10497
    }
  ],
  "scene": 0,
  "scenes": [
    {
      "name": "Sketchfab_Scene",
      "nodes": [
        0
      ]
    }
  ],
  "textures": [
    {
      "sampler": 0,
      "source": 0
    }
  ]
}
